<svg width="18" height="18" viewBox="0 0 18 18" fill="none" xmlns="http://www.w3.org/2000/svg">
<rect width="18" height="18" rx="2.6" fill="#59FF7E"/>
<path d="M7.2 12.4957C7.39 12.7565 7.5 13.08 7.5 13.4348C7.5 14.3009 6.83 15 6 15C5.17 15 4.5 14.3009 4.5 13.4348C4.5 12.5687 5.17 11.8696 6 11.8696C6.22 11.8696 6.425 11.9165 6.615 12.0052L7.32 11.0817C7.09854 10.8228 6.9348 10.5158 6.84057 10.1829C6.74634 9.85003 6.72395 9.49951 6.775 9.15652L5.76 8.80174C5.58512 9.08637 5.32655 9.30418 5.02303 9.42253C4.71952 9.54087 4.38742 9.55338 4.07652 9.45817C3.76562 9.36296 3.49267 9.16517 3.29858 8.89443C3.1045 8.6237 2.99974 8.29462 3 7.95652C3 7.09043 3.67 6.3913 4.5 6.3913C5.33 6.3913 6 7.09043 6 7.95652C6 7.99304 6 8.02957 5.995 8.06609L7.01 8.42087C7.17086 8.10332 7.39986 7.82885 7.67914 7.61888C7.95841 7.40892 8.28041 7.26913 8.62 7.21043V6.08348C8.29927 5.99419 8.01571 5.79704 7.81323 5.52256C7.61075 5.24808 7.50066 4.91159 7.5 4.56522C7.5 3.69913 8.17 3 9 3C9.83 3 10.5 3.69913 10.5 4.56522C10.5 5.29565 10.02 5.90609 9.375 6.08348V7.21043C10.075 7.33043 10.665 7.78957 10.985 8.42087L12 8.06609V7.95652C12 7.09043 12.67 6.3913 13.5 6.3913C14.33 6.3913 15 7.09043 15 7.95652C15 8.82261 14.33 9.52174 13.5 9.52174C12.97 9.52174 12.51 9.23478 12.24 8.80696L11.225 9.16174C11.2766 9.50473 11.2544 9.85539 11.1601 10.1884C11.0659 10.5213 10.9019 10.8282 10.68 11.087L11.385 12.0104C11.575 11.9165 11.78 11.8696 12 11.8696C12.83 11.8696 13.5 12.5687 13.5 13.4348C13.5 14.3009 12.83 15 12 15C11.17 15 10.5 14.3009 10.5 13.4348C10.5 13.08 10.61 12.7565 10.8 12.4957L10.095 11.5722C9.42 11.9635 8.59 11.9687 7.91 11.5722L7.2 12.4957Z" fill="white"/>
</svg>
